# xmcd
#
# Track frame offsets:
#	150
#	17042
#	29575
#	43942
#	56285
#	75882
#	89905
#	104267
#	125327
#	143405
#	154402
#
# Disc length: 2241 seconds
#
# Revision: 0
# Processed by: cddbd v1.5.2PL0 Copyright (c) Steve Scherf et al.
# Submitted via: EasyCDDAExtractor 15.2.5.1
#
DISCID=8908bf0b
DTITLE=Karen Tobin and Crazy Hearts
DYEAR=1993
DGENRE=country
TTITLE0=Take It Back
TTITLE1=Stay
TTITLE2=Over My Heart
TTITLE3=Playin' For Keeps
TTITLE4=Walking W/Angels
TTITLE5=Talk The Town
TTITLE6=Another Heartache
TTITLE7=Lil' Darlin'
TTITLE8=I'll Be Over You
TTITLE9=Hey Loretta
TTITLE10=You Again
EXTD=
EXTT0=
EXTT1=
EXTT2=
EXTT3=
EXTT4=
EXTT5=
EXTT6=
EXTT7=
EXTT8=
EXTT9=
EXTT10=
PLAYORDER=
